<?xml version="1.0" encoding="UTF-8"?>
<svg xmlns="http://www.w3.org/2000/svg" xmlns:xlink="http://www.w3.org/1999/xlink" width="118px" height="33px" viewBox="0 0 117 33" version="1.1">
<g id="surface1">
<path style=" stroke:none;fill-rule:nonzero;fill:rgb(0%,0%,0%);fill-opacity:1;" d="M 4.828125 2.546875 C 4.828125 3.769531 4.785156 4.265625 4.65625 4.308594 C 4.515625 4.367188 4.53125 4.421875 4.6875 4.539062 C 4.871094 4.679688 4.871094 4.707031 4.6875 4.851562 C 4.53125 4.964844 4.515625 5.019531 4.65625 5.078125 C 4.742188 5.105469 4.828125 5.261719 4.828125 5.40625 C 4.828125 5.546875 4.742188 5.703125 4.65625 5.746094 C 4.515625 5.816406 4.515625 5.847656 4.65625 5.917969 C 4.855469 6.015625 4.882812 6.542969 4.6875 6.542969 C 4.601562 6.542969 4.542969 7.679688 4.542969 9.671875 C 4.542969 11.394531 4.570312 12.800781 4.613281 12.800781 C 4.65625 12.800781 5.523438 11.960938 6.53125 10.953125 L 8.378906 9.101562 L 12 12.730469 C 13.984375 14.722656 15.617188 16.414062 15.617188 16.5 C 15.617188 16.585938 13.984375 18.277344 12 20.269531 L 8.378906 23.898438 L 6.53125 22.046875 C 5.523438 21.039062 4.65625 20.199219 4.613281 20.199219 C 4.570312 20.199219 4.542969 23.015625 4.542969 26.457031 C 4.542969 29.898438 4.585938 32.714844 4.628906 32.714844 C 4.671875 32.714844 4.957031 32.460938 5.253906 32.148438 C 5.550781 31.832031 5.863281 31.578125 5.949219 31.578125 C 6.035156 31.578125 7.765625 29.914062 9.796875 27.878906 C 11.828125 25.84375 13.546875 24.179688 13.632812 24.179688 C 13.816406 24.179688 21.296875 16.683594 21.296875 16.5 C 21.296875 16.316406 16.9375 11.949219 16.753906 11.949219 C 16.667969 11.949219 15.136719 10.46875 13.347656 8.675781 C 11.558594 6.871094 10.023438 5.40625 9.9375 5.40625 C 9.855469 5.40625 8.886719 4.496094 7.796875 3.398438 C 6.320312 1.921875 5.765625 1.4375 5.664062 1.578125 C 5.609375 1.679688 5.507812 1.722656 5.4375 1.664062 C 5.382812 1.59375 5.425781 1.492188 5.523438 1.421875 C 5.695312 1.324219 5.695312 1.265625 5.496094 1.082031 C 5.382812 0.953125 5.167969 0.851562 5.054688 0.851562 C 4.855469 0.851562 4.828125 1.09375 4.828125 2.546875 Z M 4.828125 2.546875 "/>
<path style=" stroke:none;fill-rule:nonzero;fill:rgb(0%,0%,0%);fill-opacity:1;" d="M 71.847656 4.976562 C 71.847656 5.050781 71.535156 5.121094 71.136719 5.121094 C 70.753906 5.121094 70.425781 5.175781 70.425781 5.261719 C 70.425781 5.335938 70.300781 5.40625 70.144531 5.40625 C 69.988281 5.40625 69.859375 5.460938 69.859375 5.546875 C 69.859375 5.617188 69.761719 5.691406 69.644531 5.691406 C 69.363281 5.691406 67.871094 7.183594 67.871094 7.46875 C 67.871094 7.582031 67.816406 7.679688 67.730469 7.679688 C 67.660156 7.679688 67.585938 7.9375 67.585938 8.25 C 67.585938 8.5625 67.53125 8.820312 67.445312 8.820312 C 67.359375 8.820312 67.304688 9.34375 67.304688 10.097656 L 67.304688 11.378906 L 65.03125 11.378906 L 65.03125 14.222656 L 67.304688 14.222656 L 67.304688 26.171875 L 69.09375 26.171875 C 70.441406 26.171875 70.925781 26.128906 71.082031 25.972656 C 71.25 25.800781 71.277344 24.808594 71.277344 20 L 71.277344 14.222656 L 74.117188 14.222656 L 74.117188 11.378906 L 71.277344 11.378906 L 71.277344 10.242188 C 71.277344 9.574219 71.335938 9.101562 71.421875 9.101562 C 71.507812 9.101562 71.5625 8.976562 71.5625 8.820312 C 71.5625 8.632812 71.664062 8.535156 71.847656 8.535156 C 72.003906 8.535156 72.132812 8.464844 72.132812 8.390625 C 72.132812 8.308594 72.601562 8.25 73.265625 8.25 L 74.402344 8.25 L 74.402344 6.984375 C 74.402344 6.101562 74.460938 5.691406 74.574219 5.660156 C 74.929688 5.53125 74.289062 5.121094 73.777344 5.121094 C 73.496094 5.121094 73.265625 5.050781 73.265625 4.976562 C 73.265625 4.894531 72.953125 4.835938 72.558594 4.835938 C 72.171875 4.835938 71.847656 4.894531 71.847656 4.976562 Z M 71.847656 4.976562 "/>
<path style=" stroke:none;fill-rule:nonzero;fill:rgb(0%,0%,0%);fill-opacity:1;" d="M 33.976562 6.472656 C 33.835938 6.628906 33.792969 8.789062 33.792969 16.214844 C 33.792969 24.308594 33.820312 25.800781 33.992188 25.972656 C 34.164062 26.128906 34.800781 26.171875 37.257812 26.171875 C 39.203125 26.171875 40.324219 26.117188 40.324219 26.03125 C 40.324219 25.945312 40.75 25.886719 41.320312 25.886719 C 41.886719 25.886719 42.3125 25.832031 42.3125 25.746094 C 42.3125 25.660156 42.511719 25.601562 42.738281 25.601562 C 42.980469 25.601562 43.164062 25.53125 43.164062 25.460938 C 43.164062 25.375 43.363281 25.320312 43.589844 25.320312 C 43.832031 25.320312 44.015625 25.246094 44.015625 25.175781 C 44.015625 25.089844 44.128906 25.035156 44.273438 25.035156 C 44.414062 25.035156 44.613281 24.90625 44.726562 24.75 C 44.839844 24.59375 45.011719 24.464844 45.109375 24.464844 C 45.378906 24.464844 47.140625 22.671875 47.140625 22.402344 C 47.140625 22.289062 47.210938 22.191406 47.28125 22.191406 C 47.367188 22.191406 47.425781 22.0625 47.425781 21.90625 C 47.425781 21.75 47.496094 21.621094 47.566406 21.621094 C 47.652344 21.621094 47.707031 21.492188 47.707031 21.335938 C 47.707031 21.179688 47.78125 21.050781 47.851562 21.050781 C 47.9375 21.050781 47.992188 20.921875 47.992188 20.765625 C 47.992188 20.609375 48.0625 20.484375 48.132812 20.484375 C 48.21875 20.484375 48.277344 20.285156 48.277344 20.054688 C 48.277344 19.8125 48.347656 19.628906 48.417969 19.628906 C 48.503906 19.628906 48.5625 19.300781 48.5625 18.917969 C 48.5625 18.519531 48.632812 18.207031 48.703125 18.207031 C 48.789062 18.207031 48.84375 17.453125 48.84375 16.214844 C 48.84375 14.976562 48.789062 14.222656 48.703125 14.222656 C 48.632812 14.222656 48.5625 13.898438 48.5625 13.511719 C 48.5625 13.113281 48.503906 12.800781 48.417969 12.800781 C 48.347656 12.800781 48.277344 12.601562 48.277344 12.375 C 48.277344 12.132812 48.21875 11.949219 48.132812 11.949219 C 48.0625 11.949219 47.992188 11.75 47.992188 11.523438 C 47.992188 11.28125 47.9375 11.09375 47.851562 11.09375 C 47.78125 11.09375 47.707031 10.980469 47.707031 10.839844 C 47.707031 10.695312 47.582031 10.496094 47.425781 10.382812 C 47.269531 10.269531 47.140625 10.097656 47.140625 10 C 47.140625 9.730469 45.066406 7.679688 44.796875 7.679688 C 44.683594 7.679688 44.585938 7.609375 44.585938 7.539062 C 44.585938 7.453125 44.457031 7.398438 44.300781 7.398438 C 44.144531 7.398438 44.015625 7.324219 44.015625 7.253906 C 44.015625 7.167969 43.890625 7.113281 43.734375 7.113281 C 43.578125 7.113281 43.449219 7.039062 43.449219 6.96875 C 43.449219 6.882812 43.265625 6.828125 43.023438 6.828125 C 42.796875 6.828125 42.597656 6.757812 42.597656 6.683594 C 42.597656 6.601562 42.339844 6.542969 42.027344 6.542969 C 41.714844 6.542969 41.460938 6.472656 41.460938 6.402344 C 41.460938 6.316406 40.15625 6.257812 37.8125 6.257812 C 34.832031 6.273438 34.121094 6.300781 33.976562 6.472656 Z M 41.460938 9.816406 C 41.460938 9.886719 41.644531 9.957031 41.859375 9.957031 C 42.085938 9.957031 42.339844 10.070312 42.457031 10.242188 C 42.570312 10.398438 42.738281 10.527344 42.851562 10.527344 C 43.09375 10.527344 43.449219 10.882812 43.449219 11.125 C 43.449219 11.238281 43.578125 11.40625 43.734375 11.523438 C 43.890625 11.636719 44.015625 11.835938 44.015625 11.976562 C 44.015625 12.117188 44.089844 12.234375 44.160156 12.234375 C 44.246094 12.234375 44.300781 12.417969 44.300781 12.660156 C 44.300781 12.886719 44.371094 13.085938 44.441406 13.085938 C 44.527344 13.085938 44.585938 13.613281 44.585938 14.367188 C 44.585938 15.121094 44.640625 15.648438 44.726562 15.648438 C 44.8125 15.648438 44.867188 15.902344 44.867188 16.214844 C 44.867188 16.527344 44.8125 16.785156 44.726562 16.785156 C 44.640625 16.785156 44.585938 17.253906 44.585938 17.921875 C 44.585938 18.589844 44.527344 19.058594 44.441406 19.058594 C 44.371094 19.058594 44.300781 19.246094 44.300781 19.488281 C 44.300781 19.714844 44.246094 19.914062 44.160156 19.914062 C 44.089844 19.914062 44.015625 20.042969 44.015625 20.199219 C 44.015625 20.355469 43.960938 20.484375 43.875 20.484375 C 43.804688 20.484375 43.734375 20.582031 43.734375 20.695312 C 43.734375 20.980469 42.527344 22.191406 42.242188 22.191406 C 42.128906 22.191406 42.027344 22.246094 42.027344 22.332031 C 42.027344 22.402344 41.84375 22.472656 41.601562 22.472656 C 41.375 22.472656 41.175781 22.53125 41.175781 22.617188 C 41.175781 22.703125 40.566406 22.757812 39.617188 22.757812 L 38.054688 22.757812 L 38.054688 9.671875 L 39.757812 9.671875 C 40.792969 9.671875 41.460938 9.730469 41.460938 9.816406 Z M 41.460938 9.816406 "/>
<path style=" stroke:none;fill-rule:nonzero;fill:rgb(0%,0%,0%);fill-opacity:1;" d="M 56.226562 11.238281 C 56.226562 11.308594 56.042969 11.378906 55.800781 11.378906 C 55.574219 11.378906 55.375 11.4375 55.375 11.523438 C 55.375 11.59375 55.191406 11.664062 54.949219 11.664062 C 54.722656 11.664062 54.523438 11.71875 54.523438 11.804688 C 54.523438 11.878906 54.425781 11.949219 54.3125 11.949219 C 54.042969 11.949219 52.253906 13.710938 52.253906 13.980469 C 52.253906 14.082031 52.125 14.253906 51.96875 14.367188 C 51.796875 14.480469 51.683594 14.734375 51.683594 14.964844 C 51.683594 15.175781 51.628906 15.363281 51.542969 15.363281 C 51.472656 15.363281 51.402344 15.546875 51.402344 15.789062 C 51.402344 16.015625 51.34375 16.214844 51.257812 16.214844 C 51.171875 16.214844 51.117188 16.597656 51.117188 17.070312 C 51.117188 17.539062 51.058594 17.921875 50.972656 17.921875 C 50.890625 17.921875 50.832031 18.304688 50.832031 18.777344 C 50.832031 19.246094 50.890625 19.628906 50.972656 19.628906 C 51.058594 19.628906 51.117188 20.011719 51.117188 20.484375 C 51.117188 20.953125 51.171875 21.335938 51.257812 21.335938 C 51.34375 21.335938 51.402344 21.519531 51.402344 21.761719 C 51.402344 21.992188 51.472656 22.191406 51.542969 22.191406 C 51.628906 22.191406 51.683594 22.316406 51.683594 22.472656 C 51.683594 22.628906 51.753906 22.757812 51.828125 22.757812 C 51.910156 22.757812 51.96875 22.859375 51.96875 22.984375 C 51.96875 23.113281 52.167969 23.398438 52.394531 23.613281 C 52.636719 23.824219 52.820312 24.109375 52.820312 24.238281 C 52.820312 24.367188 52.917969 24.464844 53.046875 24.464844 C 53.175781 24.464844 53.460938 24.652344 53.671875 24.890625 C 53.886719 25.121094 54.167969 25.320312 54.296875 25.320312 C 54.425781 25.320312 54.523438 25.375 54.523438 25.460938 C 54.523438 25.53125 54.652344 25.601562 54.808594 25.601562 C 54.964844 25.601562 55.09375 25.660156 55.09375 25.746094 C 55.09375 25.816406 55.292969 25.886719 55.519531 25.886719 C 55.757812 25.886719 55.945312 25.945312 55.945312 26.03125 C 55.945312 26.117188 56.371094 26.171875 56.925781 26.171875 C 57.578125 26.171875 57.933594 26.230469 57.988281 26.34375 C 58.058594 26.484375 58.089844 26.484375 58.160156 26.34375 C 58.214844 26.230469 58.570312 26.171875 59.222656 26.171875 C 59.777344 26.171875 60.203125 26.117188 60.203125 26.03125 C 60.203125 25.945312 60.402344 25.886719 60.628906 25.886719 C 60.871094 25.886719 61.054688 25.816406 61.054688 25.746094 C 61.054688 25.660156 61.183594 25.601562 61.339844 25.601562 C 61.496094 25.601562 61.625 25.53125 61.625 25.460938 C 61.625 25.375 61.738281 25.320312 61.878906 25.320312 C 62.019531 25.320312 62.21875 25.191406 62.332031 25.035156 C 62.449219 24.878906 62.617188 24.75 62.730469 24.75 C 62.988281 24.75 63.328125 24.394531 63.328125 24.125 C 63.328125 23.996094 63.398438 23.898438 63.46875 23.898438 C 63.808594 23.898438 63.554688 23.398438 62.902344 22.757812 C 62.519531 22.375 62.191406 21.960938 62.191406 21.847656 C 62.191406 21.476562 61.765625 21.59375 61.339844 22.046875 C 61.125 22.273438 60.84375 22.472656 60.714844 22.472656 C 60.585938 22.472656 60.488281 22.53125 60.488281 22.617188 C 60.488281 22.6875 60.359375 22.757812 60.203125 22.757812 C 60.046875 22.757812 59.917969 22.816406 59.917969 22.902344 C 59.917969 22.984375 59.351562 23.042969 58.5 23.042969 C 57.648438 23.042969 57.082031 22.984375 57.082031 22.902344 C 57.082031 22.816406 56.953125 22.757812 56.796875 22.757812 C 56.640625 22.757812 56.511719 22.6875 56.511719 22.617188 C 56.511719 22.53125 56.414062 22.472656 56.300781 22.472656 C 56.015625 22.472656 55.375 21.835938 55.375 21.550781 C 55.375 21.4375 55.320312 21.335938 55.234375 21.335938 C 55.164062 21.335938 55.09375 21.136719 55.09375 20.910156 C 55.09375 20.667969 55.035156 20.484375 54.949219 20.484375 C 54.878906 20.484375 54.808594 20.355469 54.808594 20.199219 C 54.808594 19.914062 54.90625 19.914062 59.492188 19.914062 L 64.179688 19.914062 L 64.179688 19.058594 C 64.179688 18.589844 64.121094 18.207031 64.039062 18.207031 C 63.953125 18.207031 63.894531 17.738281 63.894531 17.070312 C 63.894531 16.402344 63.839844 15.929688 63.753906 15.929688 C 63.683594 15.929688 63.613281 15.730469 63.613281 15.503906 C 63.613281 15.261719 63.554688 15.078125 63.46875 15.078125 C 63.398438 15.078125 63.328125 14.878906 63.328125 14.652344 C 63.328125 14.410156 63.269531 14.222656 63.1875 14.222656 C 63.113281 14.222656 63.042969 14.125 63.042969 14.011719 C 63.042969 13.726562 61.269531 11.949219 60.984375 11.949219 C 60.871094 11.949219 60.773438 11.878906 60.773438 11.804688 C 60.773438 11.71875 60.644531 11.664062 60.488281 11.664062 C 60.332031 11.664062 60.203125 11.59375 60.203125 11.523438 C 60.203125 11.4375 59.949219 11.378906 59.636719 11.378906 C 59.324219 11.378906 59.066406 11.308594 59.066406 11.238281 C 59.066406 11.152344 58.5 11.09375 57.648438 11.09375 C 56.796875 11.09375 56.226562 11.152344 56.226562 11.238281 Z M 58.5 14.367188 C 58.5 14.4375 58.597656 14.507812 58.714844 14.507812 C 58.996094 14.507812 59.917969 15.433594 59.917969 15.71875 C 59.917969 15.832031 59.992188 15.929688 60.0625 15.929688 C 60.148438 15.929688 60.203125 16.242188 60.203125 16.640625 L 60.203125 17.351562 L 57.507812 17.351562 C 55.800781 17.351562 54.808594 17.296875 54.808594 17.210938 C 54.808594 17.125 54.878906 17.070312 54.949219 17.070312 C 55.035156 17.070312 55.09375 16.8125 55.09375 16.5 C 55.09375 16.1875 55.164062 15.929688 55.234375 15.929688 C 55.320312 15.929688 55.375 15.832031 55.375 15.71875 C 55.375 15.347656 56.3125 14.507812 56.726562 14.507812 C 56.925781 14.507812 57.082031 14.4375 57.082031 14.367188 C 57.082031 14.28125 57.40625 14.222656 57.789062 14.222656 C 58.1875 14.222656 58.5 14.28125 58.5 14.367188 Z M 58.5 14.367188 "/>
<path style=" stroke:none;fill-rule:nonzero;fill:rgb(0%,0%,0%);fill-opacity:1;" d="M 80.933594 11.238281 C 80.933594 11.308594 80.679688 11.378906 80.367188 11.378906 C 80.054688 11.378906 79.796875 11.4375 79.796875 11.523438 C 79.796875 11.59375 79.671875 11.664062 79.515625 11.664062 C 79.359375 11.664062 79.230469 11.71875 79.230469 11.804688 C 79.230469 11.878906 79.117188 11.949219 78.976562 11.949219 C 78.832031 11.949219 78.632812 12.078125 78.519531 12.234375 C 78.40625 12.390625 78.238281 12.515625 78.125 12.515625 C 77.882812 12.515625 77.242188 13.15625 77.242188 13.398438 C 77.242188 13.511719 77.113281 13.683594 76.957031 13.796875 C 76.800781 13.910156 76.675781 14.109375 76.675781 14.253906 C 76.675781 14.394531 76.617188 14.507812 76.53125 14.507812 C 76.460938 14.507812 76.390625 14.636719 76.390625 14.792969 C 76.390625 14.949219 76.332031 15.078125 76.25 15.078125 C 76.179688 15.078125 76.105469 15.207031 76.105469 15.363281 C 76.105469 15.519531 76.050781 15.648438 75.964844 15.648438 C 75.894531 15.648438 75.824219 15.902344 75.824219 16.214844 C 75.824219 16.527344 75.765625 16.785156 75.679688 16.785156 C 75.59375 16.785156 75.539062 17.539062 75.539062 18.777344 C 75.539062 20.011719 75.59375 20.765625 75.679688 20.765625 C 75.765625 20.765625 75.824219 21.023438 75.824219 21.335938 C 75.824219 21.648438 75.894531 21.90625 75.964844 21.90625 C 76.050781 21.90625 76.105469 22.03125 76.105469 22.191406 C 76.105469 22.347656 76.179688 22.472656 76.25 22.472656 C 76.332031 22.472656 76.390625 22.601562 76.390625 22.757812 C 76.390625 22.914062 76.460938 23.042969 76.53125 23.042969 C 76.617188 23.042969 76.675781 23.144531 76.675781 23.257812 C 76.675781 23.527344 78.152344 25.035156 78.421875 25.035156 C 78.519531 25.035156 78.691406 25.164062 78.804688 25.320312 C 78.917969 25.476562 79.117188 25.601562 79.257812 25.601562 C 79.402344 25.601562 79.515625 25.660156 79.515625 25.746094 C 79.515625 25.816406 79.769531 25.886719 80.082031 25.886719 C 80.394531 25.886719 80.652344 25.945312 80.652344 26.03125 C 80.652344 26.117188 81.078125 26.171875 81.628906 26.171875 C 82.285156 26.171875 82.636719 26.230469 82.695312 26.34375 C 82.765625 26.484375 82.792969 26.484375 82.867188 26.34375 C 82.921875 26.230469 83.277344 26.171875 83.929688 26.171875 C 84.484375 26.171875 84.910156 26.117188 84.910156 26.03125 C 84.910156 25.945312 85.109375 25.886719 85.335938 25.886719 C 85.578125 25.886719 85.761719 25.816406 85.761719 25.746094 C 85.761719 25.660156 85.890625 25.601562 86.046875 25.601562 C 86.203125 25.601562 86.332031 25.53125 86.332031 25.460938 C 86.332031 25.375 86.429688 25.320312 86.542969 25.320312 C 86.671875 25.320312 87.109375 24.964844 87.550781 24.523438 C 88.347656 23.738281 88.347656 23.738281 88.046875 23.484375 C 87.878906 23.34375 87.75 23.144531 87.75 23.058594 C 87.75 22.972656 87.453125 22.601562 87.097656 22.246094 L 86.457031 21.59375 L 86.203125 21.890625 C 86.058594 22.0625 85.847656 22.191406 85.746094 22.191406 C 85.632812 22.191406 85.449219 22.316406 85.335938 22.472656 C 85.222656 22.644531 84.96875 22.757812 84.738281 22.757812 C 84.527344 22.757812 84.34375 22.816406 84.34375 22.902344 C 84.34375 22.984375 83.773438 23.042969 82.921875 23.042969 C 82.070312 23.042969 81.503906 22.984375 81.503906 22.902344 C 81.503906 22.816406 81.402344 22.757812 81.289062 22.757812 C 80.921875 22.757812 79.796875 21.535156 79.796875 21.121094 C 79.796875 20.921875 79.742188 20.765625 79.65625 20.765625 C 79.585938 20.765625 79.515625 20.566406 79.515625 20.339844 L 79.515625 19.914062 L 88.601562 19.914062 L 88.601562 18.207031 C 88.601562 17.167969 88.546875 16.5 88.460938 16.5 C 88.390625 16.5 88.316406 16.242188 88.316406 15.929688 C 88.316406 15.617188 88.261719 15.363281 88.175781 15.363281 C 88.105469 15.363281 88.035156 15.164062 88.035156 14.933594 C 88.035156 14.695312 87.976562 14.507812 87.890625 14.507812 C 87.820312 14.507812 87.75 14.394531 87.75 14.253906 C 87.75 14.109375 87.621094 13.910156 87.464844 13.796875 C 87.308594 13.683594 87.183594 13.511719 87.183594 13.398438 C 87.183594 13.144531 86.246094 12.234375 85.976562 12.234375 C 85.863281 12.234375 85.761719 12.160156 85.761719 12.089844 C 85.761719 12.003906 85.632812 11.949219 85.476562 11.949219 C 85.320312 11.949219 85.195312 11.878906 85.195312 11.804688 C 85.195312 11.71875 85.066406 11.664062 84.910156 11.664062 C 84.753906 11.664062 84.625 11.59375 84.625 11.523438 C 84.625 11.4375 84.441406 11.378906 84.199219 11.378906 C 83.972656 11.378906 83.773438 11.308594 83.773438 11.238281 C 83.773438 11.152344 83.207031 11.09375 82.355469 11.09375 C 81.503906 11.09375 80.933594 11.152344 80.933594 11.238281 Z M 82.921875 14.367188 C 82.921875 14.4375 83.078125 14.507812 83.277344 14.507812 C 83.761719 14.507812 84.625 15.375 84.625 15.859375 C 84.625 16.058594 84.695312 16.214844 84.769531 16.214844 C 84.851562 16.214844 84.910156 16.472656 84.910156 16.785156 L 84.910156 17.351562 L 79.515625 17.351562 L 79.515625 16.925781 C 79.515625 16.683594 79.585938 16.5 79.65625 16.5 C 79.742188 16.5 79.796875 16.34375 79.796875 16.144531 C 79.796875 15.730469 80.921875 14.507812 81.289062 14.507812 C 81.402344 14.507812 81.503906 14.4375 81.503906 14.367188 C 81.503906 14.28125 81.828125 14.222656 82.210938 14.222656 C 82.609375 14.222656 82.921875 14.28125 82.921875 14.367188 Z M 82.921875 14.367188 "/>
<path style=" stroke:none;fill-rule:nonzero;fill:rgb(0%,0%,0%);fill-opacity:1;" d="M 109.046875 11.238281 C 109.046875 11.308594 108.792969 11.378906 108.480469 11.378906 C 108.167969 11.378906 107.914062 11.4375 107.914062 11.523438 C 107.914062 11.59375 107.785156 11.664062 107.628906 11.664062 C 107.472656 11.664062 107.34375 11.71875 107.34375 11.804688 C 107.34375 11.878906 107.21875 11.949219 107.0625 11.949219 C 106.90625 11.949219 106.777344 12.003906 106.777344 12.089844 C 106.777344 12.160156 106.675781 12.234375 106.5625 12.234375 C 106.28125 12.234375 105.074219 13.441406 105.074219 13.726562 C 105.074219 13.839844 105.015625 13.941406 104.929688 13.941406 C 104.859375 13.941406 104.789062 14.066406 104.789062 14.222656 C 104.789062 14.378906 104.730469 14.507812 104.648438 14.507812 C 104.574219 14.507812 104.503906 14.765625 104.503906 15.078125 L 104.503906 15.648438 L 108.480469 15.648438 L 108.480469 15.289062 C 108.480469 14.820312 109.078125 14.222656 109.546875 14.222656 C 109.746094 14.222656 109.902344 14.152344 109.902344 14.082031 C 109.902344 13.996094 110.15625 13.941406 110.46875 13.941406 C 110.78125 13.941406 111.035156 13.996094 111.035156 14.082031 C 111.035156 14.152344 111.207031 14.222656 111.40625 14.222656 C 111.816406 14.222656 112.171875 14.523438 112.171875 14.851562 C 112.171875 14.976562 112.242188 15.078125 112.3125 15.078125 C 112.398438 15.078125 112.457031 15.503906 112.457031 16.074219 L 112.457031 17.070312 L 110.753906 17.070312 C 109.714844 17.070312 109.046875 17.125 109.046875 17.210938 C 109.046875 17.28125 108.734375 17.351562 108.339844 17.351562 C 107.957031 17.351562 107.628906 17.410156 107.628906 17.496094 C 107.628906 17.566406 107.445312 17.636719 107.203125 17.636719 C 106.976562 17.636719 106.777344 17.695312 106.777344 17.78125 C 106.777344 17.851562 106.675781 17.921875 106.5625 17.921875 C 106.179688 17.921875 104.503906 19.730469 104.503906 20.128906 C 104.503906 20.328125 104.449219 20.484375 104.363281 20.484375 C 104.277344 20.484375 104.222656 21.050781 104.222656 21.90625 C 104.222656 22.757812 104.277344 23.328125 104.363281 23.328125 C 104.449219 23.328125 104.503906 23.457031 104.503906 23.613281 C 104.503906 23.769531 104.574219 23.898438 104.648438 23.898438 C 104.730469 23.898438 104.789062 23.996094 104.789062 24.109375 C 104.789062 24.378906 105.699219 25.320312 105.953125 25.320312 C 106.066406 25.320312 106.238281 25.445312 106.351562 25.601562 C 106.464844 25.773438 106.71875 25.886719 106.945312 25.886719 C 107.160156 25.886719 107.34375 25.945312 107.34375 26.03125 C 107.34375 26.117188 108.011719 26.171875 109.046875 26.171875 C 110.085938 26.171875 110.753906 26.117188 110.753906 26.03125 C 110.753906 25.945312 110.878906 25.886719 111.035156 25.886719 C 111.191406 25.886719 111.320312 25.816406 111.320312 25.746094 C 111.320312 25.660156 111.417969 25.601562 111.546875 25.601562 C 111.675781 25.601562 111.960938 25.40625 112.171875 25.175781 C 112.65625 24.652344 112.742188 24.652344 112.742188 25.105469 C 112.742188 25.304688 112.894531 25.632812 113.09375 25.816406 C 113.421875 26.15625 113.519531 26.171875 115.226562 26.171875 C 116.902344 26.171875 117 26.15625 117 25.886719 C 117 25.730469 116.941406 25.601562 116.859375 25.601562 C 116.785156 25.601562 116.714844 25.347656 116.714844 25.035156 C 116.714844 24.722656 116.660156 24.464844 116.574219 24.464844 C 116.488281 24.464844 116.433594 22.800781 116.433594 19.773438 C 116.433594 16.742188 116.375 15.078125 116.289062 15.078125 C 116.21875 15.078125 116.148438 14.835938 116.148438 14.535156 C 116.148438 14.167969 116.0625 13.941406 115.863281 13.796875 C 115.707031 13.683594 115.582031 13.511719 115.582031 13.414062 C 115.582031 13.144531 114.359375 11.949219 114.089844 11.949219 C 113.976562 11.949219 113.875 11.878906 113.875 11.804688 C 113.875 11.71875 113.75 11.664062 113.59375 11.664062 C 113.4375 11.664062 113.308594 11.59375 113.308594 11.523438 C 113.308594 11.4375 113.050781 11.378906 112.742188 11.378906 C 112.429688 11.378906 112.171875 11.308594 112.171875 11.238281 C 112.171875 11.152344 111.5625 11.09375 110.609375 11.09375 C 109.660156 11.09375 109.046875 11.152344 109.046875 11.238281 Z M 112.457031 20.695312 L 112.457031 22.0625 L 111.960938 22.546875 C 111.660156 22.859375 111.335938 23.042969 111.105469 23.042969 C 110.910156 23.042969 110.753906 23.101562 110.753906 23.183594 C 110.753906 23.269531 110.367188 23.328125 109.902344 23.328125 C 109.433594 23.328125 109.046875 23.269531 109.046875 23.183594 C 109.046875 23.101562 108.921875 23.042969 108.765625 23.042969 C 108.578125 23.042969 108.480469 22.945312 108.480469 22.757812 C 108.480469 22.601562 108.421875 22.472656 108.339844 22.472656 C 108.269531 22.472656 108.195312 22.347656 108.195312 22.191406 C 108.195312 22.03125 108.140625 21.90625 108.054688 21.90625 C 107.984375 21.90625 107.914062 21.777344 107.914062 21.621094 C 107.914062 21.464844 107.984375 21.335938 108.054688 21.335938 C 108.140625 21.335938 108.195312 21.179688 108.195312 20.980469 C 108.195312 20.496094 109.0625 19.628906 109.546875 19.628906 C 109.746094 19.628906 109.902344 19.558594 109.902344 19.488281 C 109.902344 19.402344 110.425781 19.34375 111.179688 19.34375 L 112.457031 19.34375 Z M 112.457031 20.695312 "/>
<path style=" stroke:none;fill-rule:nonzero;fill:rgb(0%,0%,0%);fill-opacity:1;" d="M 90.023438 11.664062 C 90.023438 11.820312 90.09375 11.949219 90.164062 11.949219 C 90.25 11.949219 90.304688 12.078125 90.304688 12.234375 C 90.304688 12.390625 90.375 12.515625 90.449219 12.515625 C 90.53125 12.515625 90.589844 12.632812 90.589844 12.773438 C 90.589844 12.914062 90.71875 13.113281 90.875 13.226562 C 91.03125 13.34375 91.15625 13.542969 91.15625 13.683594 C 91.15625 13.824219 91.230469 13.941406 91.300781 13.941406 C 91.386719 13.941406 91.441406 14.066406 91.441406 14.222656 C 91.441406 14.378906 91.511719 14.507812 91.582031 14.507812 C 91.667969 14.507812 91.726562 14.621094 91.726562 14.765625 C 91.726562 14.90625 91.855469 15.105469 92.007812 15.21875 C 92.164062 15.332031 92.292969 15.53125 92.292969 15.675781 C 92.292969 15.816406 92.363281 15.929688 92.4375 15.929688 C 92.519531 15.929688 92.578125 16.058594 92.578125 16.214844 C 92.578125 16.371094 92.648438 16.5 92.71875 16.5 C 92.804688 16.5 92.863281 16.613281 92.863281 16.757812 C 92.863281 16.898438 92.988281 17.097656 93.144531 17.210938 C 93.300781 17.324219 93.429688 17.523438 93.429688 17.667969 C 93.429688 17.808594 93.5 17.921875 93.570312 17.921875 C 93.65625 17.921875 93.714844 18.179688 93.714844 18.492188 C 93.714844 18.804688 93.65625 19.058594 93.570312 19.058594 C 93.5 19.058594 93.429688 19.1875 93.429688 19.34375 C 93.429688 19.5 93.371094 19.628906 93.289062 19.628906 C 93.214844 19.628906 93.144531 19.757812 93.144531 19.914062 C 93.144531 20.070312 93.089844 20.199219 93.003906 20.199219 C 92.933594 20.199219 92.863281 20.3125 92.863281 20.453125 C 92.863281 20.597656 92.734375 20.796875 92.578125 20.910156 C 92.421875 21.023438 92.292969 21.222656 92.292969 21.363281 C 92.292969 21.507812 92.238281 21.621094 92.152344 21.621094 C 92.082031 21.621094 92.007812 21.734375 92.007812 21.875 C 92.007812 22.019531 91.882812 22.21875 91.726562 22.332031 C 91.570312 22.445312 91.441406 22.644531 91.441406 22.785156 C 91.441406 22.929688 91.386719 23.042969 91.300781 23.042969 C 91.230469 23.042969 91.15625 23.171875 91.15625 23.328125 C 91.15625 23.484375 91.101562 23.613281 91.015625 23.613281 C 90.945312 23.613281 90.875 23.726562 90.875 23.867188 C 90.875 24.011719 90.746094 24.210938 90.589844 24.324219 C 90.433594 24.4375 90.304688 24.636719 90.304688 24.777344 C 90.304688 24.921875 90.25 25.035156 90.164062 25.035156 C 90.09375 25.035156 90.023438 25.164062 90.023438 25.320312 C 90.023438 25.476562 89.964844 25.601562 89.878906 25.601562 C 89.808594 25.601562 89.738281 25.730469 89.738281 25.886719 C 89.738281 26.15625 89.835938 26.171875 91.667969 26.171875 C 93.65625 26.171875 93.996094 26.085938 93.996094 25.546875 C 93.996094 25.417969 94.070312 25.320312 94.140625 25.320312 C 94.226562 25.320312 94.28125 25.207031 94.28125 25.0625 C 94.28125 24.921875 94.410156 24.722656 94.566406 24.609375 C 94.722656 24.492188 94.847656 24.292969 94.847656 24.152344 C 94.847656 24.011719 94.921875 23.898438 94.992188 23.898438 C 95.078125 23.898438 95.132812 23.769531 95.132812 23.613281 C 95.132812 23.457031 95.203125 23.328125 95.277344 23.328125 C 95.359375 23.328125 95.417969 23.199219 95.417969 23.042969 C 95.417969 22.886719 95.488281 22.757812 95.558594 22.757812 C 95.644531 22.757812 95.703125 22.660156 95.703125 22.546875 C 95.703125 22.332031 96.296875 21.621094 96.480469 21.621094 C 96.523438 21.621094 96.554688 21.734375 96.554688 21.875 C 96.554688 22.019531 96.679688 22.21875 96.835938 22.332031 C 96.992188 22.445312 97.121094 22.644531 97.121094 22.785156 C 97.121094 22.929688 97.191406 23.042969 97.261719 23.042969 C 97.347656 23.042969 97.40625 23.171875 97.40625 23.328125 C 97.40625 23.484375 97.476562 23.613281 97.546875 23.613281 C 97.632812 23.613281 97.6875 23.738281 97.6875 23.898438 C 97.6875 24.054688 97.761719 24.179688 97.832031 24.179688 C 97.917969 24.179688 97.972656 24.292969 97.972656 24.4375 C 97.972656 24.578125 98.101562 24.777344 98.257812 24.890625 C 98.414062 25.007812 98.542969 25.207031 98.542969 25.347656 C 98.542969 25.488281 98.613281 25.601562 98.683594 25.601562 C 98.769531 25.601562 98.824219 25.730469 98.824219 25.886719 C 98.824219 26.15625 98.925781 26.171875 100.8125 26.171875 L 102.800781 26.171875 L 102.800781 25.746094 C 102.800781 25.503906 102.746094 25.320312 102.660156 25.320312 C 102.589844 25.320312 102.515625 25.207031 102.515625 25.0625 C 102.515625 24.921875 102.390625 24.722656 102.234375 24.609375 C 102.078125 24.492188 101.949219 24.292969 101.949219 24.152344 C 101.949219 24.011719 101.890625 23.898438 101.808594 23.898438 C 101.734375 23.898438 101.664062 23.769531 101.664062 23.613281 C 101.664062 23.457031 101.609375 23.328125 101.523438 23.328125 C 101.453125 23.328125 101.382812 23.214844 101.382812 23.070312 C 101.382812 22.929688 101.253906 22.730469 101.097656 22.617188 C 100.941406 22.503906 100.8125 22.304688 100.8125 22.160156 C 100.8125 22.019531 100.757812 21.90625 100.671875 21.90625 C 100.601562 21.90625 100.527344 21.777344 100.527344 21.621094 C 100.527344 21.464844 100.472656 21.335938 100.386719 21.335938 C 100.316406 21.335938 100.246094 21.222656 100.246094 21.082031 C 100.246094 20.9375 100.117188 20.738281 99.960938 20.625 C 99.804688 20.511719 99.675781 20.3125 99.675781 20.167969 C 99.675781 20.027344 99.621094 19.914062 99.535156 19.914062 C 99.464844 19.914062 99.394531 19.800781 99.394531 19.65625 C 99.394531 19.515625 99.265625 19.316406 99.109375 19.203125 C 98.8125 18.988281 98.710938 18.207031 98.96875 18.207031 C 99.050781 18.207031 99.109375 18.078125 99.109375 17.921875 C 99.109375 17.765625 99.179688 17.636719 99.25 17.636719 C 99.335938 17.636719 99.394531 17.523438 99.394531 17.382812 C 99.394531 17.238281 99.519531 17.039062 99.675781 16.925781 C 99.832031 16.8125 99.960938 16.613281 99.960938 16.472656 C 99.960938 16.328125 100.03125 16.214844 100.101562 16.214844 C 100.1875 16.214844 100.246094 16.101562 100.246094 15.960938 C 100.246094 15.816406 100.371094 15.617188 100.527344 15.503906 C 100.683594 15.390625 100.8125 15.191406 100.8125 15.050781 C 100.8125 14.90625 100.882812 14.792969 100.957031 14.792969 C 101.039062 14.792969 101.097656 14.664062 101.097656 14.507812 C 101.097656 14.351562 101.167969 14.222656 101.238281 14.222656 C 101.324219 14.222656 101.382812 14.109375 101.382812 13.96875 C 101.382812 13.824219 101.507812 13.625 101.664062 13.511719 C 101.820312 13.398438 101.949219 13.199219 101.949219 13.058594 C 101.949219 12.914062 102.019531 12.800781 102.089844 12.800781 C 102.175781 12.800781 102.234375 12.671875 102.234375 12.515625 C 102.234375 12.359375 102.304688 12.234375 102.375 12.234375 C 102.460938 12.234375 102.515625 12.105469 102.515625 11.949219 C 102.515625 11.792969 102.589844 11.664062 102.660156 11.664062 C 102.746094 11.664062 102.800781 11.59375 102.800781 11.523438 C 102.800781 11.4375 101.992188 11.378906 100.671875 11.378906 C 98.640625 11.378906 98.542969 11.394531 98.542969 11.664062 C 98.542969 11.820312 98.484375 11.949219 98.398438 11.949219 C 98.328125 11.949219 98.257812 12.078125 98.257812 12.234375 C 98.257812 12.390625 98.199219 12.515625 98.117188 12.515625 C 98.042969 12.515625 97.972656 12.644531 97.972656 12.800781 C 97.972656 12.957031 97.917969 13.085938 97.832031 13.085938 C 97.761719 13.085938 97.6875 13.199219 97.6875 13.34375 C 97.6875 13.484375 97.5625 13.683594 97.40625 13.796875 C 97.25 13.910156 97.121094 14.109375 97.121094 14.253906 C 97.121094 14.394531 97.066406 14.507812 96.980469 14.507812 C 96.910156 14.507812 96.835938 14.636719 96.835938 14.792969 C 96.835938 14.949219 96.78125 15.078125 96.695312 15.078125 C 96.625 15.078125 96.554688 15.207031 96.554688 15.363281 C 96.554688 15.519531 96.511719 15.648438 96.46875 15.648438 C 96.3125 15.648438 95.984375 15.234375 95.984375 15.019531 C 95.984375 14.894531 95.929688 14.792969 95.84375 14.792969 C 95.773438 14.792969 95.703125 14.679688 95.703125 14.535156 C 95.703125 14.394531 95.574219 14.195312 95.417969 14.082031 C 95.261719 13.96875 95.132812 13.769531 95.132812 13.625 C 95.132812 13.484375 95.078125 13.371094 94.992188 13.371094 C 94.921875 13.371094 94.847656 13.242188 94.847656 13.085938 C 94.847656 12.929688 94.792969 12.800781 94.707031 12.800781 C 94.636719 12.800781 94.566406 12.671875 94.566406 12.515625 C 94.566406 12.359375 94.507812 12.234375 94.421875 12.234375 C 94.351562 12.234375 94.28125 12.132812 94.28125 12.003906 C 94.28125 11.464844 93.941406 11.378906 91.953125 11.378906 C 90.121094 11.378906 90.023438 11.394531 90.023438 11.664062 Z M 90.023438 11.664062 "/>
</g>
</svg>
